# xmcd
#
# Track frame offsets:
#	150
#	16210
#	33420
#	49265
#	63730
#	85500
#	110505
#	126207
#	145410
#	162207
#	175602
#	188575
#	209430
#	228815
#	262782
#	279355
#	290015
#	307827
#
# Disc length: 4353 seconds
#
# Revision: 0
# Processed by: cddbd v1.5.2PL0 Copyright (c) Steve Scherf et al.
# Submitted via: FairStars CD Ripper 1.60
#
DISCID=f110ff12
DTITLE=Various Artist - Pop Muzik
DYEAR=2000
DGENRE=Pop
TTITLE0=D.J. Bobo - Somebody Dance With Me '97
TTITLE1=KC and The Sunshine Band - Please Don't Go
TTITLE2=Limahl - Too Shy
TTITLE3=M - Pop Muzik
TTITLE4=Pet Shop Boys - West End Girls
TTITLE5=Genesis - In Too Deep (Live)
TTITLE6=America - A Horse With No Name (Live)
TTITLE7=Smokie - Have You Ever Seen The Rain'
TTITLE8=John Bongiovi - Open Your Heart
TTITLE9=Ike and Tina Turner - Nutbush City Limits
TTITLE10=The Three Degrees - When Will I See You Again
TTITLE11=Gloria Gaynor - I Will Survive (Classical Remix)
TTITLE12=Desireless - Voyage, Voyage
TTITLE13=Phil Carmen - On My Way To L.A.
TTITLE14=Gazebo - I Like Chopin
TTITLE15=Tome Jones and Paul Anka - Nights On Broadway (Live)
TTITLE16=Doobie Brothers - Listen To The Music
TTITLE17=Electric Light Orchestra - Don't Bring Me Down
EXTD=
EXTT0=
EXTT1=
EXTT2=
EXTT3=
EXTT4=
EXTT5=
EXTT6=
EXTT7=
EXTT8=
EXTT9=
EXTT10=
EXTT11=
EXTT12=
EXTT13=
EXTT14=
EXTT15=
EXTT16=
EXTT17=
PLAYORDER=
